{"glyphs":{"0":{"ha":746,"x_min":0,"x_max":678,"o":"m 136 543 l 136 136 l 543 136 l 543 543 l 136 543 m 1 610 l 1 611 q 20 659 1 639 q 68 679 40 679 q 79 678 74 679 l 610 678 q 658 659 638 678 q 678 610 678 639 l 678 68 q 659 20 678 40 q 610 0 639 0 l 68 0 q 20 20 40 0 q 0 68 0 40 l 0 610 l 1 610 z "},"1":{"ha":203,"x_min":0,"x_max":136,"o":"m 136 68 q 116 20 136 40 q 68 0 96 0 q 20 20 40 0 q 0 68 0 40 l 0 610 q 20 658 0 638 q 68 678 40 678 q 116 658 96 678 q 136 610 136 638 l 136 68 z "},"2":{"ha":746,"x_min":0,"x_max":678,"o":"m 610 136 q 659 116 639 136 q 678 68 678 96 q 659 20 678 40 q 610 0 639 0 l 68 0 q 20 20 40 0 q 0 68 0 40 q 20 116 0 96 l 446 543 l 68 543 l 68 543 q 20 563 40 543 q 1 611 1 583 q 20 659 1 639 q 68 679 40 679 q 79 678 74 679 l 610 678 q 658 659 638 678 q 678 610 678 639 q 659 563 678 583 l 231 136 l 610 136 z "},"3":{"ha":746,"x_min":0,"x_max":678,"o":"m 658 20 q 68 -542 96 -542 q 20 -522 40 -542 q 0 -474 0 -503 q 20 -427 0 -446 l 446 0 l 68 0 q 20 20 40 0 q 0 68 0 40 q 20 116 0 96 l 446 543 l 68 543 l 68 543 q 20 563 40 543 q 1 611 1 583 q 20 659 1 639 q 68 679 40 679 q 79 678 74 679 l 610 678 q 658 659 638 678 q 678 610 678 639 q 659 563 678 583 l 231 136 l 610 136 q 658 116 638 136 q 678 68 678 96 q 659 20 678 40 l 658 20 z "},"4":{"ha":746,"x_min":0,"x_max":678,"o":"m 1 610 l 1 611 q 20 659 1 639 q 68 679 40 679 q 116 659 96 679 q 136 611 136 639 q 136 601 136 606 l 136 136 l 543 136 l 543 610 q 562 659 543 639 q 610 678 582 678 q 658 659 638 678 q 678 610 678 639 l 678 -475 q 659 -523 678 -503 q 610 -543 639 -543 q 563 -523 583 -543 q 543 -475 543 -503 l 543 0 l 68 0 q 20 20 40 0 q 0 68 0 40 l 0 610 l 1 610 z "},"5":{"ha":746,"x_min":0,"x_max":678,"o":"m 0 610 q 20 658 0 638 q 68 678 40 678 l 600 678 q 610 679 605 679 q 658 659 638 679 q 678 611 678 640 q 658 563 678 583 q 610 543 638 543 l 610 543 l 136 543 l 136 137 l 610 137 q 658 117 638 137 q 678 69 678 97 q 659 21 678 41 l 116 -522 q 68 -541 96 -541 q 20 -522 40 -541 q 0 -473 0 -502 q 20 -425 0 -446 l 447 1 l 68 1 q 20 21 40 1 q 0 68 1 40 l 0 610 z "},"6":{"ha":746,"x_min":0,"x_max":678,"o":"m 563 660 q 610 679 583 679 q 658 659 638 679 q 678 611 678 640 q 659 564 678 583 l 232 137 l 610 137 q 658 117 638 137 q 678 69 678 97 q 659 21 678 41 l 116 -522 q 68 -541 96 -541 q 20 -522 40 -541 q 0 -475 1 -503 l 0 69 q 20 117 0 97 l 563 660 m 136 -310 l 447 1 l 136 1 l 136 -310 z "},"7":{"ha":746,"x_min":0,"x_max":678,"o":"m 119 24 q 116 20 118 22 q 68 0 96 0 q 20 20 40 0 q 0 68 0 40 q 20 116 0 96 l 446 543 l 68 543 l 68 543 q 20 563 40 543 q 1 611 1 583 q 20 659 1 639 q 68 679 40 679 q 79 678 74 679 l 610 678 q 658 659 638 678 q 678 610 678 639 q 659 563 678 583 l 119 24 z "},"8":{"ha":746,"x_min":0,"x_max":678,"o":"m 543 -95 l 232 -406 l 543 -406 l 543 -95 m 563 660 q 610 679 583 679 q 659 659 638 679 q 678 612 678 640 l 678 -473 l 677 -473 l 677 -474 q 658 -522 677 -502 q 610 -542 638 -542 q 600 -541 604 -542 l 68 -541 q 20 -522 40 -541 q 0 -473 0 -502 q 20 -425 0 -446 l 447 1 l 68 1 q 20 21 40 1 q 0 69 0 41 q 20 117 0 97 l 563 660 m 232 137 l 543 137 l 543 448 l 232 137 z "},"9":{"ha":746,"x_min":0,"x_max":678,"o":"m 115 -522 q 68 -541 96 -541 q 20 -522 40 -541 q 0 -473 0 -502 q 20 -426 0 -446 l 446 1 l 68 1 q 20 21 40 1 q 0 68 0 41 q 20 117 0 97 l 562 659 q 610 679 582 679 q 659 659 638 679 q 678 612 677 640 l 678 68 q 659 21 678 41 l 115 -522 m 543 448 l 231 136 l 543 136 l 543 448 z "},"\u0000":{"ha":0,"x_min":0,"x_max":0,"o":""}," ":{"ha":345,"x_min":0,"x_max":0,"o":""},"!":{"ha":203,"x_min":0,"x_max":136,"o":"m 0 882 q 20 929 0 909 q 68 949 39 949 q 116 929 96 949 q 136 882 136 909 l 136 339 q 116 291 136 311 q 68 271 96 271 q 20 291 40 271 q 0 339 0 311 l 0 882 m 68 136 q 116 116 96 136 q 136 68 136 96 q 116 20 136 40 q 68 0 96 0 q 20 20 40 0 q 0 68 0 40 q 20 116 0 96 q 68 136 40 136 z "},"\"":{"ha":407,"x_min":0,"x_max":339,"o":"m 339 746 q 319 698 339 718 q 271 678 300 678 q 223 698 243 678 q 203 746 203 718 l 203 882 q 223 929 203 909 q 271 949 243 949 q 319 929 299 949 q 339 882 339 909 l 339 746 m 136 746 q 116 698 136 718 q 68 678 96 678 q 20 698 40 678 q 0 746 0 718 l 0 882 q 20 929 0 909 q 68 949 40 949 q 116 929 96 949 q 136 882 136 909 l 136 746 z "},"#":{"ha":746,"x_min":0,"x_max":678,"o":"m 407 136 l 271 136 l 271 68 q 251 20 271 40 q 203 0 231 0 q 155 20 175 0 q 136 68 136 40 l 136 136 l 68 136 q 20 156 40 136 q 0 203 0 176 q 20 252 0 232 q 68 271 40 271 l 136 271 l 136 407 l 68 407 q 20 427 40 407 q 0 475 0 447 q 20 523 0 503 q 68 543 40 543 l 136 543 l 136 610 q 156 658 136 638 q 203 678 176 678 q 251 658 231 678 q 271 610 271 638 l 271 543 l 407 543 l 407 610 q 427 658 407 638 q 475 678 447 678 q 523 658 503 678 q 543 610 543 638 l 543 543 l 610 543 q 658 523 638 543 q 678 475 678 503 q 658 427 678 447 q 610 407 638 407 l 543 407 l 543 271 l 610 271 q 658 251 638 271 q 678 203 678 231 q 658 156 678 176 q 610 136 638 136 l 543 136 l 543 68 q 523 20 543 40 q 475 0 503 0 q 427 20 446 0 q 407 68 407 40 l 407 136 m 271 271 l 407 271 l 407 407 l 271 407 l 271 271 z "},"$":{"ha":746,"x_min":0,"x_max":678,"o":"m 407 312 l 271 176 l 271 137 l 407 137 l 407 312 m 407 -39 l 407 1 l 271 1 l 271 -174 l 407 -39 m 407 504 l 407 610 q 427 659 407 639 q 475 678 447 678 q 523 659 503 678 q 538 635 533 648 l 563 660 q 610 679 583 679 q 658 659 638 679 q 678 611 678 640 q 659 564 678 583 l 543 448 l 543 137 l 610 137 q 658 117 638 137 q 678 69 678 97 q 659 21 678 41 l 543 -95 l 543 -475 q 523 -523 543 -503 q 475 -543 503 -543 q 427 -523 447 -543 q 407 -475 407 -503 l 407 -231 l 271 -366 l 271 -475 q 251 -523 271 -503 q 203 -543 231 -543 q 156 -523 176 -543 q 140 -498 144 -512 l 116 -522 q 68 -541 96 -541 q 20 -522 40 -541 q 0 -473 0 -502 q 20 -425 0 -446 l 136 -310 l 136 1 l 68 1 q 20 21 40 1 q 0 69 0 41 q 20 117 0 97 l 136 233 l 136 610 q 156 659 136 639 q 203 678 176 678 q 251 659 231 678 q 271 610 271 639 l 271 368 l 407 504 z "},"%":{"ha":746,"x_min":0,"x_max":678,"o":"m 562 659 q 610 678 582 678 q 658 659 638 678 q 678 610 678 639 q 659 563 678 583 l 119 24 q 116 20 118 22 q 68 0 96 0 q 20 20 40 0 q 0 68 0 40 q 20 116 0 96 l 562 659 m 610 0 q 562 20 582 0 q 543 68 543 39 q 562 116 543 96 q 610 136 582 136 q 658 116 638 136 q 678 68 678 96 q 658 20 678 39 q 610 0 638 0 m 68 543 q 20 563 40 543 q 0 610 0 583 q 20 658 0 638 q 68 678 40 678 q 116 658 96 678 q 136 610 136 638 q 116 563 136 583 q 68 543 96 543 z "},"&":{"ha":746,"x_min":0,"x_max":678,"o":"m 543 -406 l 543 -95 l 232 -406 l 543 -406 m 677 -475 q 658 -522 677 -502 q 610 -542 638 -542 q 600 -541 604 -542 l 68 -541 q 20 -522 40 -541 q 0 -473 0 -502 q 20 -425 0 -446 l 447 1 l 68 1 q 20 21 40 1 q 0 69 0 41 q 20 117 0 97 l 563 660 q 610 679 583 679 q 658 659 638 679 q 678 611 678 640 q 659 564 678 583 l 232 137 l 610 137 q 658 117 638 137 q 678 69 678 97 l 678 -475 l 677 -475 z "},"'":{"ha":203,"x_min":0,"x_max":136,"o":"m 136 746 q 116 698 136 718 q 68 678 96 678 q 20 698 40 678 q 0 746 0 718 l 0 882 q 20 929 0 909 q 68 949 40 949 q 116 929 96 949 q 136 882 136 909 l 136 746 z "},"(":{"ha":746,"x_min":0,"x_max":678,"o":"m 68 0 q 20 20 40 0 q 0 68 0 40 q 20 116 0 96 q 610 678 582 678 q 658 659 638 678 q 678 610 678 639 q 659 563 678 583 l 231 136 l 610 136 q 658 116 638 136 q 678 68 678 96 q 658 20 678 40 q 610 0 638 0 l 68 0 z "},")":{"ha":746,"x_min":0,"x_max":678,"o":"m 119 24 q 116 20 118 22 q 68 0 96 0 q 20 20 40 0 q 0 68 0 40 q 20 116 0 96 l 446 543 l 68 543 l 68 543 q 20 563 40 543 q 1 611 1 583 q 20 659 1 639 q 68 679 40 679 q 79 678 74 679 l 610 678 q 658 659 638 678 q 678 610 678 639 q 659 563 678 583 l 119 24 z "},"*":{"ha":746,"x_min":0,"x_max":678,"o":"m 407 678 l 610 678 q 658 658 638 678 q 678 610 678 638 q 658 563 678 583 q 610 543 638 543 l 407 543 l 407 339 q 387 291 407 311 q 339 271 367 271 q 291 291 311 271 q 271 339 271 311 l 271 543 l 68 543 q 20 563 40 543 q 0 610 0 583 q 20 659 0 639 q 68 678 40 678 l 271 678 l 271 882 q 291 929 271 909 q 339 949 311 949 q 387 929 367 949 q 407 882 407 909 l 407 678 z "},"+":{"ha":746,"x_min":0,"x_max":678,"o":"m 407 407 l 610 407 q 658 387 638 407 q 678 339 678 367 q 658 291 678 311 q 610 271 638 271 l 407 271 l 407 68 q 387 20 407 40 q 339 0 367 0 q 291 20 311 0 q 271 68 271 40 l 271 271 l 68 271 q 20 291 40 271 q 0 339 0 311 q 20 387 0 368 q 68 407 40 407 l 271 407 l 271 610 q 291 658 271 638 q 339 678 311 678 q 387 658 367 678 q 407 610 407 638 l 407 407 z "},",":{"ha":203,"x_min":0,"x_max":136,"o":"m 136 -68 q 116 -116 136 -96 q 68 -136 96 -136 q 20 -116 40 -136 q 0 -68 0 -96 l 0 68 q 20 116 0 96 q 68 136 40 136 q 116 116 96 136 q 136 68 136 96 l 136 -68 z "},"-":{"ha":746,"x_min":0,"x_max":678,"o":"m 610 407 q 658 387 638 407 q 678 339 678 367 q 658 291 678 311 q 610 271 638 271 l 68 271 q 20 291 40 271 q 0 339 0 311 q 20 387 0 368 q 68 407 40 407 l 610 407 z "},".":{"ha":203,"x_min":0,"x_max":136,"o":"m 136 68 q 116 20 136 40 q 68 0 96 0 q 20 20 40 0 q 0 68 0 40 q 20 116 0 96 q 68 136 40 136 q 116 116 96 136 q 136 68 136 96 z "},"/":{"ha":746,"x_min":0,"x_max":678,"o":"m 562 659 q 610 678 582 678 q 658 659 638 678 q 678 610 678 639 q 659 563 678 583 l 119 24 q 116 20 118 22 q 68 0 96 0 q 20 20 40 0 q 0 68 0 40 q 20 116 0 96 l 562 659 z "},":":{"ha":203,"x_min":0,"x_max":136,"o":"m 136 68 q 116 20 136 40 q 68 0 96 0 q 20 20 40 0 q 0 68 0 40 q 20 116 0 96 q 68 136 40 136 q 116 116 96 136 q 136 68 136 96 m 136 627 q 116 579 136 599 q 68 559 96 559 q 20 579 40 559 q 0 627 0 599 q 20 674 0 654 q 68 694 40 694 q 116 674 96 694 q 136 627 136 654 z "},";":{"ha":203,"x_min":0,"x_max":136,"o":"m 136 -68 q 116 -116 136 -96 q 68 -136 96 -136 q 20 -116 40 -136 q 0 -68 0 -96 l 0 68 q 20 116 0 96 q 68 136 40 136 q 116 116 96 136 q 136 68 136 96 l 136 -68 m 136 627 q 116 579 136 599 q 68 559 96 559 q 20 579 40 559 q 0 627 0 599 q 20 674 0 654 q 68 694 40 694 q 116 674 96 694 q 136 627 136 654 z "},"<":{"ha":746,"x_min":0,"x_max":678,"o":"m 68 0 q 20 20 40 0 q 0 68 0 40 q 20 116 0 96 q 610 678 582 678 q 658 659 638 678 q 678 610 678 639 q 659 563 678 583 l 231 136 l 610 136 q 658 116 638 136 q 678 68 678 96 q 658 20 678 40 q 610 0 638 0 l 68 0 z "},"=":{"ha":746,"x_min":0,"x_max":678,"o":"m 610 271 q 658 251 638 271 q 678 203 678 231 q 658 156 678 176 q 610 136 638 136 l 68 136 q 20 156 40 136 q 0 203 0 176 q 20 252 0 232 q 68 271 40 271 l 610 271 m 610 543 q 658 523 638 543 q 678 475 678 503 q 658 427 678 447 q 610 407 638 407 l 68 407 q 20 427 40 407 q 0 475 0 447 q 20 523 0 503 q 68 543 40 543 l 610 543 z "},">":{"ha":746,"x_min":0,"x_max":678,"o":"m 119 24 q 116 20 118 22 q 68 0 96 0 q 20 20 40 0 q 0 68 0 40 q 20 116 0 96 l 446 543 l 68 543 l 68 543 q 20 563 40 543 q 1 611 1 583 q 20 659 1 639 q 68 679 40 679 q 79 678 74 679 l 610 678 q 658 659 638 678 q 678 610 678 639 q 659 563 678 583 l 119 24 z "},"?":{"ha":746,"x_min":0,"x_max":678,"o":"m 68 136 q 116 116 96 136 q 136 68 136 96 q 116 20 136 39 q 68 0 96 0 q 20 20 40 0 q 0 68 0 39 q 20 116 0 96 q 68 136 40 136 m 610 949 q 658 929 638 949 q 678 882 678 909 q 659 833 678 853 l 116 291 q 68 271 96 271 q 20 291 40 271 q 0 339 0 311 q 20 387 0 367 l 447 814 l 68 814 q 20 833 40 814 q 0 882 0 853 q 20 929 0 909 q 68 949 40 949 l 610 949 z "},"@":{"ha":746,"x_min":0,"x_max":678,"o":"m 136 232 l 446 543 l 136 543 l 136 232 m 543 136 l 543 447 l 231 136 l 543 136 m 1 610 l 1 611 q 20 659 1 639 q 68 679 40 679 q 79 678 74 679 l 610 678 q 658 659 638 678 q 678 610 678 639 l 678 68 q 659 20 678 40 q 610 0 639 0 l 68 0 q 20 20 40 0 q 0 68 0 40 l 0 610 l 1 610 z "},"A":{"ha":746,"x_min":0,"x_max":678,"o":"m 119 24 q 116 20 118 22 q 68 0 96 0 q 20 20 40 0 q 0 68 0 40 q 20 116 0 96 q 610 678 582 678 q 658 659 638 678 q 678 610 678 639 l 678 68 q 658 20 678 40 q 610 0 638 0 q 562 20 582 0 q 543 68 543 40 l 543 447 l 119 24 z "},"B":{"ha":746,"x_min":0,"x_max":678,"o":"m 116 -522 q 68 -542 96 -542 q 20 -522 40 -542 q 0 -475 0 -503 l 0 610 l 1 610 l 1 611 q 20 659 1 639 q 68 679 40 679 q 79 678 74 679 l 610 678 q 658 659 638 678 q 678 610 678 639 q 659 563 678 583 l 231 136 l 610 136 q 658 116 638 136 q 678 68 678 96 q 659 20 678 40 l 116 -522 m 136 232 l 446 543 l 136 543 l 136 232 m 136 -311 l 446 0 l 136 0 l 136 -311 z "},"C":{"ha":746,"x_min":0,"x_max":678,"o":"m 68 0 q 20 20 40 0 q 0 68 0 40 q 20 116 0 96 q 610 678 582 678 q 658 659 638 678 q 678 610 678 639 q 659 563 678 583 l 231 136 l 610 136 q 658 116 638 136 q 678 68 678 96 q 658 20 678 40 q 610 0 638 0 l 68 0 z "},"D":{"ha":746,"x_min":0,"x_max":678,"o":"m 136 232 l 446 543 l 136 543 l 136 232 m 119 24 q 116 20 118 22 q 68 0 96 0 q 20 20 40 0 q 0 68 0 40 l 0 610 q 20 658 0 638 q 68 678 40 678 l 610 678 q 658 659 638 678 q 678 610 678 639 q 659 563 678 583 l 119 24 z "},"E":{"ha":746,"x_min":0,"x_max":678,"o":"m 610 -406 q 658 -426 638 -406 q 677 -474 677 -446 q 658 -522 677 -502 q 610 -542 638 -542 q 600 -541 604 -542 l 68 -541 q 20 -522 40 -541 q 0 -473 0 -502 q 20 -425 0 -446 l 447 1 l 68 1 q 20 21 40 1 q 0 69 0 41 q 20 117 0 97 l 563 660 q 610 679 583 679 q 658 659 638 679 q 678 611 678 640 q 659 564 678 583 l 232 137 l 610 137 q 658 117 638 137 q 678 69 678 97 q 659 21 678 41 l 232 -406 l 610 -406 l 610 -406 z "},"F":{"ha":746,"x_min":0,"x_max":678,"o":"m 136 -475 q 116 -523 136 -503 q 68 -543 96 -543 q 20 -523 40 -543 q 0 -475 0 -503 l 0 611 q 20 659 0 639 q 68 679 40 679 l 610 679 q 658 659 638 679 q 678 611 678 640 q 658 563 678 583 q 610 543 638 543 l 136 543 l 136 136 l 610 136 q 658 117 638 136 q 677 68 677 96 q 658 20 677 40 q 610 1 638 1 l 136 1 l 136 -475 z "},"G":{"ha":746,"x_min":0,"x_max":678,"o":"m 136 232 l 447 543 l 136 543 l 136 232 m 543 447 l 117 21 q 68 1 96 1 q 20 21 40 1 q 1 68 1 41 l 0 68 l 0 610 q 20 658 0 638 q 68 678 40 678 l 68 679 l 610 679 q 658 659 638 679 q 678 611 678 639 l 678 -474 q 658 -522 678 -503 q 610 -542 638 -542 l 610 -543 l 68 -543 q 20 -522 40 -543 q 1 -475 1 -503 q 20 -427 1 -447 q 68 -407 40 -407 l 543 -407 l 543 447 z "},"H":{"ha":746,"x_min":0,"x_max":678,"o":"m 1 882 l 1 882 q 20 930 1 910 q 68 950 40 950 q 116 930 96 950 q 136 882 136 910 q 136 872 136 877 l 136 232 l 562 659 q 610 678 582 678 q 658 659 638 678 q 678 610 678 639 l 678 68 q 659 20 678 40 q 610 0 639 0 q 563 20 583 0 q 543 68 543 40 l 543 447 l 119 24 q 116 20 118 22 q 68 0 96 0 q 20 20 40 0 q 0 68 0 40 l 0 882 l 1 882 z "},"I":{"ha":203,"x_min":0,"x_max":136,"o":"m 136 68 q 116 20 136 40 q 68 0 96 0 q 20 20 40 0 q 0 68 0 40 l 0 610 q 20 658 0 638 q 68 678 40 678 q 116 658 96 678 q 136 610 136 638 l 136 68 z "},"J":{"ha":203,"x_min":-542,"x_max":136,"o":"m 136 -474 q 116 -522 136 -503 q 68 -542 96 -542 l 68 -543 l -475 -543 q -522 -522 -503 -543 q -542 -475 -542 -503 q -522 -427 -542 -447 q -475 -407 -503 -407 l 0 -407 l 0 611 q 20 659 0 639 q 68 679 40 679 q 116 659 96 679 q 136 611 136 639 l 136 -474 z "},"K":{"ha":746,"x_min":0,"x_max":678,"o":"m 562 659 q 610 678 582 678 q 658 659 638 678 q 678 610 678 639 q 659 563 678 583 l 231 136 l 610 136 q 658 116 638 136 q 678 68 678 96 q 658 20 678 40 q 610 0 638 0 l 68 0 q 20 20 40 0 q 0 68 0 40 l 0 610 l 1 610 l 1 611 q 20 659 1 639 q 68 679 40 679 q 116 659 96 679 q 136 611 136 639 q 136 601 136 606 l 136 232 l 562 659 z "},"L":{"ha":543,"x_min":0,"x_max":475,"o":"m 397 136 q 407 136 401 136 q 455 116 435 136 q 475 68 475 96 q 455 20 475 40 q 407 1 435 1 l 407 0 l 68 0 q 20 20 40 0 q 0 68 0 40 l 0 882 q 20 929 0 909 q 68 949 40 949 q 116 929 96 949 q 136 882 136 909 l 136 136 l 397 136 z "},"M":{"ha":1289,"x_min":0,"x_max":1221,"o":"m 1220 68 l 1220 68 q 1200 20 1220 40 q 1152 0 1181 0 q 1104 20 1124 0 q 1084 68 1084 40 q 1085 78 1084 73 l 1085 447 l 659 20 q 610 1 639 1 q 563 20 583 1 q 543 68 543 40 l 543 447 l 116 20 q 68 1 96 1 q 20 20 40 1 q 0 68 0 40 q 20 117 0 96 l 559 655 q 562 659 560 657 q 610 679 582 679 q 658 659 638 679 q 678 611 678 639 l 678 232 l 1101 655 q 1105 659 1103 657 q 1153 679 1124 679 q 1201 659 1181 679 q 1221 611 1221 639 l 1221 68 l 1220 68 z "},"N":{"ha":746,"x_min":0,"x_max":678,"o":"m 543 601 q 542 611 542 606 q 562 659 542 639 q 610 679 582 679 q 658 659 638 679 q 677 611 677 639 l 677 610 l 678 610 l 678 68 q 658 20 678 40 q 610 0 638 0 q 562 20 582 0 q 556 27 559 24 l 136 447 l 136 68 q 116 20 136 40 q 68 0 96 0 q 20 20 39 0 q 0 68 0 40 l 0 610 q 20 659 0 639 q 68 678 40 678 q 116 659 96 678 l 117 659 l 543 232 l 543 601 z "},"O":{"ha":746,"x_min":0,"x_max":678,"o":"m 136 543 l 136 136 l 543 136 l 543 543 l 136 543 m 1 610 l 1 611 q 20 659 1 639 q 68 679 40 679 q 79 678 74 679 l 610 678 q 658 659 638 678 q 678 610 678 639 l 678 68 q 659 20 678 40 q 610 0 639 0 l 68 0 q 20 20 40 0 q 0 68 0 40 l 0 610 l 1 610 z "},"P":{"ha":746,"x_min":0,"x_max":678,"o":"m 136 -475 q 116 -522 136 -503 q 68 -542 96 -542 q 20 -522 40 -542 q 0 -475 0 -503 l 0 610 l 1 610 l 1 611 q 20 659 1 639 q 68 679 40 679 q 79 678 74 679 l 610 678 q 658 659 638 678 q 678 610 678 639 q 659 563 678 583 l 136 40 l 136 -475 m 136 232 l 446 543 l 136 543 l 136 232 z "},"Q":{"ha":746,"x_min":0,"x_max":678,"o":"m 543 447 l 117 21 q 68 1 96 1 q 20 21 40 1 q 1 68 1 41 l 0 68 l 0 611 q 20 659 0 639 q 68 679 40 679 q 78 678 73 679 l 600 678 q 610 679 605 679 q 658 659 638 679 q 678 611 678 639 l 678 -474 q 658 -522 678 -503 q 610 -542 638 -542 q 562 -522 582 -542 q 543 -474 543 -503 l 543 447 m 136 232 l 446 543 l 136 543 l 136 232 z "},"R":{"ha":746,"x_min":0,"x_max":678,"o":"m 136 -475 q 116 -522 136 -503 q 68 -542 96 -542 q 20 -522 40 -542 q 0 -475 0 -503 l 0 610 l 1 610 l 1 611 q 20 659 1 639 q 68 679 40 679 q 79 678 74 679 l 610 678 q 658 659 638 678 q 678 610 678 639 q 659 563 678 583 l 231 136 l 610 136 q 658 116 638 136 q 678 68 678 96 q 658 20 678 40 q 610 0 638 0 l 136 0 l 136 -475 m 136 232 l 446 543 l 136 543 l 136 232 z "},"S":{"ha":746,"x_min":0,"x_max":678,"o":"m 563 660 q 610 679 583 679 q 658 659 638 679 q 678 611 678 640 q 659 564 678 583 l 232 137 l 610 137 q 658 117 638 137 q 678 69 678 97 q 659 21 678 41 l 116 -522 q 68 -541 96 -541 q 20 -522 40 -541 q 0 -473 0 -502 q 20 -425 0 -446 l 447 1 l 68 1 q 20 21 40 1 q 0 69 0 41 q 20 117 0 97 l 563 660 z "},"T":{"ha":746,"x_min":0,"x_max":678,"o":"m 78 543 q 68 542 73 542 q 20 562 39 542 q 0 610 0 582 q 20 658 0 638 q 68 677 39 677 l 68 678 l 610 678 l 610 677 q 659 658 639 677 q 678 610 678 638 q 659 562 678 582 q 610 542 639 542 q 600 543 605 542 l 407 543 l 407 -475 q 387 -523 407 -503 q 339 -543 367 -543 q 291 -523 311 -543 q 271 -475 271 -503 l 271 543 l 78 543 z "},"U":{"ha":746,"x_min":0,"x_max":678,"o":"m 1 610 l 1 611 q 20 659 1 639 q 68 679 40 679 q 116 659 96 679 q 136 611 136 639 q 136 601 136 606 l 136 136 l 543 136 l 543 610 q 562 659 543 639 q 610 678 582 678 q 658 659 638 678 q 678 610 678 639 l 678 68 q 659 20 678 40 q 610 0 639 0 l 68 0 q 20 20 40 0 q 0 68 0 40 l 0 610 l 1 610 z "},"V":{"ha":746,"x_min":0,"x_max":678,"o":"m 562 659 q 610 678 582 678 q 658 659 638 678 q 678 610 678 639 q 659 563 678 583 l 119 24 q 116 20 118 22 q 68 0 96 0 q 20 20 40 0 q 0 68 0 40 l 0 610 l 1 610 l 1 611 q 20 659 1 639 q 68 679 40 679 q 116 659 96 679 q 136 611 136 639 q 136 601 136 606 l 136 232 l 562 659 z "},"W":{"ha":1289,"x_min":0,"x_max":1221,"o":"m 1 610 l 1 611 q 20 659 1 639 q 68 679 40 679 q 116 659 96 679 q 136 611 136 639 q 136 601 136 606 l 136 232 l 562 659 q 610 678 582 678 q 658 659 638 678 q 678 610 678 639 l 678 232 l 1105 659 q 1153 678 1124 678 q 1201 659 1181 678 q 1221 610 1221 639 q 1201 563 1221 583 l 662 24 q 659 20 661 22 q 610 0 639 0 q 563 20 583 0 q 543 68 543 40 l 543 447 l 119 24 q 116 20 118 22 q 68 0 96 0 q 20 20 40 0 q 0 68 0 40 l 0 610 l 1 610 z "},"X":{"ha":746,"x_min":0,"x_max":678,"o":"m 562 659 q 610 678 582 678 q 658 659 638 678 q 678 610 678 639 q 659 563 678 583 l 435 340 l 658 117 l 657 116 l 659 116 q 678 68 678 96 q 658 20 678 39 q 610 0 638 0 q 562 20 582 0 q 555 28 558 24 l 339 243 l 119 24 q 116 20 118 22 q 68 0 96 0 q 20 20 40 0 q 0 68 0 40 q 20 116 0 96 l 243 340 l 20 563 l 20 564 q 1 611 1 583 q 20 659 1 639 q 68 679 40 679 q 116 659 96 679 l 339 435 l 562 659 z "},"Y":{"ha":746,"x_min":0,"x_max":678,"o":"m 117 21 q 68 1 96 1 q 20 21 40 1 q 1 68 1 41 l 0 68 l 0 611 q 20 659 0 639 q 68 679 40 679 q 116 659 96 679 q 136 611 136 639 l 136 232 l 563 659 q 610 679 583 679 q 658 659 638 679 q 678 611 678 639 l 678 -474 q 658 -522 678 -503 q 610 -542 638 -542 q 562 -522 582 -542 q 543 -474 543 -503 l 543 447 l 117 21 z "},"Z":{"ha":746,"x_min":0,"x_max":678,"o":"m 610 136 q 659 116 639 136 q 678 68 678 96 q 659 20 678 40 q 610 0 639 0 l 68 0 q 20 20 40 0 q 0 68 0 40 q 20 116 0 96 l 446 543 l 68 543 l 68 543 q 20 563 40 543 q 1 611 1 583 q 20 659 1 639 q 68 679 40 679 q 79 678 74 679 l 610 678 q 658 659 638 678 q 678 610 678 639 q 659 563 678 583 l 231 136 l 610 136 z "},"[":{"ha":746,"x_min":0,"x_max":678,"o":"m 68 0 q 20 20 40 0 q 0 68 0 40 q 20 116 0 96 q 610 678 582 678 q 658 659 638 678 q 678 610 678 639 q 659 563 678 583 l 231 136 l 610 136 q 658 116 638 136 q 678 68 678 96 q 658 20 678 40 q 610 0 638 0 l 68 0 z "},"\\":{"ha":746,"x_min":0,"x_max":678,"o":"m 116 659 l 659 116 q 678 68 678 96 q 658 20 678 40 q 610 0 638 0 q 562 20 582 0 q 559 24 560 22 l 20 563 q 0 610 0 583 q 20 659 0 639 q 68 678 40 678 q 116 659 96 678 z "},"]":{"ha":746,"x_min":0,"x_max":678,"o":"m 119 24 q 116 20 118 22 q 68 0 96 0 q 20 20 40 0 q 0 68 0 40 q 20 116 0 96 l 446 543 l 68 543 l 68 543 q 20 563 40 543 q 1 611 1 583 q 20 659 1 639 q 68 679 40 679 q 79 678 74 679 l 610 678 q 658 659 638 678 q 678 610 678 639 q 659 563 678 583 l 119 24 z "},"^":{"ha":203,"x_min":0,"x_max":136,"o":"m 136 746 q 116 698 136 718 q 68 678 96 678 q 20 698 40 678 q 0 746 0 718 l 0 882 q 20 929 0 909 q 68 949 40 949 q 116 929 96 949 q 136 882 136 909 l 136 746 z "},"_":{"ha":746,"x_min":0,"x_max":678,"o":"m 610 136 q 658 116 638 136 q 678 68 678 96 q 658 20 678 40 q 610 0 638 0 l 68 0 q 20 20 40 0 q 0 68 0 40 q 20 116 0 96 q 68 136 40 136 l 610 136 z "},"`":{"ha":203,"x_min":0,"x_max":136,"o":"m 136 746 q 116 698 136 718 q 68 678 96 678 q 20 698 40 678 q 0 746 0 718 l 0 882 q 20 929 0 909 q 68 949 40 949 q 116 929 96 949 q 136 882 136 909 l 136 746 z "},"a":{"ha":746,"x_min":0,"x_max":678,"o":"m 119 24 q 116 20 118 22 q 68 0 96 0 q 20 20 40 0 q 0 68 0 40 q 20 116 0 96 q 610 678 582 678 q 658 659 638 678 q 678 610 678 639 l 678 68 q 658 20 678 40 q 610 0 638 0 q 562 20 582 0 q 543 68 543 40 l 543 447 l 119 24 z "},"b":{"ha":746,"x_min":0,"x_max":678,"o":"m 658 20 q 68 -542 96 -542 q 20 -522 40 -542 q 0 -474 0 -503 q 20 -427 0 -446 l 446 0 l 68 0 q 20 20 40 0 q 0 68 0 40 q 20 116 0 96 l 446 543 l 68 543 l 68 543 q 20 563 40 543 q 1 611 1 583 q 20 659 1 639 q 68 679 40 679 q 79 678 74 679 l 610 678 q 658 659 638 678 q 678 610 678 639 q 659 563 678 583 l 231 136 l 610 136 q 658 116 638 136 q 678 68 678 96 q 659 20 678 40 l 658 20 z "},"c":{"ha":746,"x_min":0,"x_max":678,"o":"m 68 0 q 20 20 40 0 q 0 68 0 40 q 20 116 0 96 q 610 678 582 678 q 658 659 638 678 q 678 610 678 639 q 659 563 678 583 l 231 136 l 610 136 q 658 116 638 136 q 678 68 678 96 q 658 20 678 40 q 610 0 638 0 l 68 0 z "},"d":{"ha":746,"x_min":0,"x_max":678,"o":"m 136 232 l 446 543 l 136 543 l 136 232 m 119 24 q 116 20 118 22 q 68 0 96 0 q 20 20 40 0 q 0 68 0 40 l 0 610 q 20 658 0 638 q 68 678 40 678 l 543 678 l 543 882 q 562 930 543 910 q 610 949 582 949 q 658 930 638 949 q 678 882 678 910 l 678 68 q 658 20 678 40 q 610 0 638 0 q 562 20 582 0 q 543 68 543 40 l 543 447 l 119 24 z "},"e":{"ha":746,"x_min":0,"x_max":678,"o":"m 563 660 q 610 679 583 679 q 658 659 638 679 q 678 611 678 640 q 659 564 678 583 l 232 137 l 610 137 q 658 117 638 137 q 678 69 678 97 q 659 21 678 41 l 232 -406 l 610 -406 l 610 -406 q 658 -426 638 -406 q 677 -474 677 -446 q 658 -522 677 -502 q 610 -542 638 -542 q 600 -541 604 -542 l 68 -541 q 20 -522 40 -541 q 0 -473 0 -502 q 20 -425 0 -446 l 447 1 l 68 1 q 20 21 40 1 q 0 69 0 41 q 20 117 0 97 l 563 660 z "},"f":{"ha":746,"x_min":0,"x_max":678,"o":"m 136 -475 q 116 -523 136 -503 q 68 -543 96 -543 q 20 -523 40 -543 q 0 -475 0 -503 l 0 611 q 20 659 0 639 q 68 679 40 679 l 610 679 q 658 659 638 679 q 678 611 678 640 q 658 563 678 583 q 610 543 638 543 l 136 543 l 136 136 l 610 136 q 658 117 638 136 q 677 68 677 96 q 658 20 677 40 q 610 1 638 1 l 136 1 l 136 -475 z "},"g":{"ha":746,"x_min":0,"x_max":678,"o":"m 136 232 l 447 543 l 136 543 l 136 232 m 543 447 l 117 21 q 68 1 96 1 q 20 21 40 1 q 1 68 1 41 l 0 68 l 0 610 q 20 658 0 638 q 68 678 40 678 l 68 679 l 610 679 q 658 659 638 679 q 678 611 678 639 l 678 -474 q 658 -522 678 -503 q 610 -542 638 -542 l 610 -543 l 68 -543 q 20 -522 40 -543 q 1 -475 1 -503 q 20 -427 1 -447 q 68 -407 40 -407 l 543 -407 l 543 447 z "},"h":{"ha":746,"x_min":0,"x_max":678,"o":"m 1 882 l 1 882 q 20 930 1 910 q 68 950 40 950 q 116 930 96 950 q 136 882 136 910 q 136 872 136 877 l 136 232 l 562 659 q 610 678 582 678 q 658 659 638 678 q 678 610 678 639 l 678 68 q 659 20 678 40 q 610 0 639 0 q 563 20 583 0 q 543 68 543 40 l 543 447 l 119 24 q 116 20 118 22 q 68 0 96 0 q 20 20 40 0 q 0 68 0 40 l 0 882 l 1 882 z "},"i":{"ha":203,"x_min":0,"x_max":136,"o":"m 136 68 q 116 20 136 40 q 68 0 96 0 q 20 20 40 0 q 0 68 0 40 l 0 610 q 20 658 0 638 q 68 678 40 678 q 116 658 96 678 q 136 610 136 638 l 136 68 m 68 814 q 20 834 40 814 q 0 882 0 854 q 20 929 0 909 q 68 949 40 949 q 116 929 96 949 q 136 882 136 909 q 116 834 136 854 q 68 814 96 814 z "},"j":{"ha":203,"x_min":0,"x_max":136,"o":"m 136 -475 q 116 -523 136 -503 q 68 -543 96 -543 q 20 -523 40 -543 q 0 -475 0 -503 l 0 610 q 20 658 0 638 q 68 678 40 678 q 116 658 96 678 q 136 610 136 638 l 136 -475 m 68 814 q 20 834 40 814 q 0 882 0 854 q 20 929 0 909 q 68 949 40 949 q 116 929 96 949 q 136 882 136 909 q 116 834 136 854 q 68 814 96 814 z "},"k":{"ha":746,"x_min":0,"x_max":678,"o":"m 562 659 q 610 678 582 678 q 658 659 638 678 q 678 610 678 639 q 659 563 678 583 l 231 136 l 610 136 q 658 116 638 136 q 678 68 678 96 q 658 20 678 40 q 610 0 638 0 l 68 0 q 20 20 40 0 q 0 68 0 40 l 0 882 l 1 882 l 1 882 q 20 930 1 910 q 68 950 40 950 q 116 930 96 950 q 136 882 136 910 q 136 872 136 877 l 136 232 l 562 659 z "},"l":{"ha":203,"x_min":0,"x_max":136,"o":"m 136 68 q 116 20 136 40 q 68 0 96 0 q 20 20 40 0 q 0 68 0 40 l 0 882 q 20 929 0 909 q 68 949 40 949 q 116 929 96 949 q 136 882 136 909 l 136 68 z "},"m":{"ha":1289,"x_min":0,"x_max":1221,"o":"m 1220 68 l 1220 68 q 1200 20 1220 40 q 1152 0 1181 0 q 1104 20 1124 0 q 1084 68 1084 40 q 1085 78 1084 73 l 1085 447 l 659 20 q 610 1 639 1 q 563 20 583 1 q 543 68 543 40 l 543 447 l 116 20 q 68 1 96 1 q 20 20 40 1 q 0 68 0 40 q 20 117 0 96 l 559 655 q 562 659 560 657 q 610 679 582 679 q 658 659 638 679 q 678 611 678 639 l 678 232 l 1101 655 q 1105 659 1103 657 q 1153 679 1124 679 q 1201 659 1181 679 q 1221 611 1221 639 l 1221 68 l 1220 68 z "},"n":{"ha":746,"x_min":0,"x_max":678,"o":"m 1 610 l 1 611 q 20 659 1 639 q 68 679 40 679 q 116 659 96 679 q 136 611 136 639 q 136 601 136 606 l 136 232 l 562 659 q 610 678 582 678 q 658 659 638 678 q 678 610 678 639 l 678 68 q 659 20 678 40 q 610 0 639 0 q 563 20 583 0 q 543 68 543 40 l 543 447 l 119 24 q 116 20 118 22 q 68 0 96 0 q 20 20 40 0 q 0 68 0 40 l 0 610 l 1 610 z "},"o":{"ha":746,"x_min":0,"x_max":678,"o":"m 136 543 l 136 136 l 543 136 l 543 543 l 136 543 m 1 610 l 1 611 q 20 659 1 639 q 68 679 40 679 q 79 678 74 679 l 610 678 q 658 659 638 678 q 678 610 678 639 l 678 68 q 659 20 678 40 q 610 0 639 0 l 68 0 q 20 20 40 0 q 0 68 0 40 l 0 610 l 1 610 z "},"p":{"ha":746,"x_min":0,"x_max":678,"o":"m 231 136 l 543 136 l 543 447 l 231 136 m 136 232 l 562 659 q 610 678 582 678 q 658 659 638 678 q 678 610 678 639 l 678 68 q 658 20 678 40 q 610 0 638 0 l 136 0 l 136 -475 q 116 -523 136 -503 q 68 -543 96 -543 q 20 -523 40 -543 q 0 -475 0 -503 l 0 610 l 1 610 l 1 611 q 20 659 1 639 q 68 679 40 679 q 116 659 96 679 q 136 611 136 639 q 136 601 136 606 l 136 232 z "},"q":{"ha":746,"x_min":0,"x_max":678,"o":"m 543 447 l 117 21 q 68 1 96 1 q 20 21 40 1 q 1 68 1 41 l 0 68 l 0 611 q 20 659 0 639 q 68 679 40 679 q 78 678 73 679 l 600 678 q 610 679 605 679 q 658 659 638 679 q 678 611 678 639 l 678 -474 q 658 -522 678 -503 q 610 -542 638 -542 q 562 -522 582 -542 q 543 -474 543 -503 l 543 447 m 136 232 l 446 543 l 136 543 l 136 232 z "},"r":{"ha":746,"x_min":0,"x_max":678,"o":"m 1 610 l 1 611 q 20 659 1 639 q 68 679 40 679 q 79 678 74 679 l 610 678 q 658 659 638 678 q 678 610 678 639 q 658 563 678 583 q 610 543 638 543 l 136 543 l 136 68 q 116 20 136 40 q 68 0 96 0 q 20 20 40 0 q 0 68 0 40 l 0 610 l 1 610 z "},"s":{"ha":746,"x_min":0,"x_max":678,"o":"m 563 660 q 610 679 583 679 q 658 659 638 679 q 678 611 678 640 q 659 564 678 583 l 232 137 l 610 137 q 658 117 638 137 q 678 69 678 97 q 659 21 678 41 l 116 -522 q 68 -541 96 -541 q 20 -522 40 -541 q 0 -473 0 -502 q 20 -425 0 -446 l 447 1 l 68 1 q 20 21 40 1 q 0 69 0 41 q 20 117 0 97 l 563 660 z "},"t":{"ha":746,"x_min":0,"x_max":678,"o":"m 1 882 l 1 882 q 20 930 1 910 q 68 950 40 950 q 116 930 96 950 q 136 882 136 910 q 136 872 136 877 l 136 678 l 610 678 q 658 659 638 678 q 678 610 678 639 q 658 563 678 583 q 610 543 638 543 l 136 543 l 136 136 l 610 136 q 658 116 638 136 q 678 68 678 96 q 658 20 678 40 q 610 0 638 0 l 68 0 q 20 20 40 0 q 0 68 0 40 l 0 882 l 1 882 z "},"u":{"ha":746,"x_min":0,"x_max":678,"o":"m 1 610 l 1 611 q 20 659 1 639 q 68 679 40 679 q 116 659 96 679 q 136 611 136 639 q 136 601 136 606 l 136 136 l 543 136 l 543 610 q 562 659 543 639 q 610 678 582 678 q 658 659 638 678 q 678 610 678 639 l 678 68 q 659 20 678 40 q 610 0 639 0 l 68 0 q 20 20 40 0 q 0 68 0 40 l 0 610 l 1 610 z "},"v":{"ha":746,"x_min":0,"x_max":678,"o":"m 562 659 q 610 678 582 678 q 658 659 638 678 q 678 610 678 639 q 659 563 678 583 l 119 24 q 116 20 118 22 q 68 0 96 0 q 20 20 40 0 q 0 68 0 40 l 0 610 l 1 610 l 1 611 q 20 659 1 639 q 68 679 40 679 q 116 659 96 679 q 136 611 136 639 q 136 601 136 606 l 136 232 l 562 659 z "},"w":{"ha":1289,"x_min":0,"x_max":1221,"o":"m 1 610 l 1 611 q 20 659 1 639 q 68 679 40 679 q 116 659 96 679 q 136 611 136 639 q 136 601 136 606 l 136 232 l 562 659 q 610 678 582 678 q 658 659 638 678 q 678 610 678 639 l 678 232 l 1105 659 q 1153 678 1124 678 q 1201 659 1181 678 q 1221 610 1221 639 q 1201 563 1221 583 l 662 24 q 659 20 661 22 q 610 0 639 0 q 563 20 583 0 q 543 68 543 40 l 543 447 l 119 24 q 116 20 118 22 q 68 0 96 0 q 20 20 40 0 q 0 68 0 40 l 0 610 l 1 610 z "},"x":{"ha":746,"x_min":0,"x_max":678,"o":"m 562 659 q 610 678 582 678 q 658 659 638 678 q 678 610 678 639 q 659 563 678 583 l 435 340 l 658 117 l 657 116 l 659 116 q 678 68 678 96 q 658 20 678 39 q 610 0 638 0 q 562 20 582 0 q 555 28 558 24 l 339 243 l 119 24 q 116 20 118 22 q 68 0 96 0 q 20 20 40 0 q 0 68 0 40 q 20 116 0 96 l 243 340 l 20 563 l 20 564 q 1 611 1 583 q 20 659 1 639 q 68 679 40 679 q 116 659 96 679 l 339 435 l 562 659 z "},"y":{"ha":746,"x_min":0,"x_max":678,"o":"m 117 21 q 68 1 96 1 q 20 21 40 1 q 1 68 1 41 l 0 68 l 0 611 q 20 659 0 639 q 68 679 40 679 q 116 659 96 679 q 136 611 136 639 l 136 232 l 563 659 q 610 679 583 679 q 658 659 638 679 q 678 611 678 639 l 678 -474 q 658 -522 678 -503 q 610 -542 638 -542 q 562 -522 582 -542 q 543 -474 543 -503 l 543 447 l 117 21 z "},"z":{"ha":746,"x_min":0,"x_max":678,"o":"m 610 136 q 659 116 639 136 q 678 68 678 96 q 659 20 678 40 q 610 0 639 0 l 68 0 q 20 20 40 0 q 0 68 0 40 q 20 116 0 96 l 446 543 l 68 543 l 68 543 q 20 563 40 543 q 1 611 1 583 q 20 659 1 639 q 68 679 40 679 q 79 678 74 679 l 610 678 q 658 659 638 678 q 678 610 678 639 q 659 563 678 583 l 231 136 l 610 136 z "},"{":{"ha":746,"x_min":0,"x_max":678,"o":"m 68 0 q 20 20 40 0 q 0 68 0 40 q 20 116 0 96 q 610 678 582 678 q 658 659 638 678 q 678 610 678 639 q 659 563 678 583 l 231 136 l 610 136 q 658 116 638 136 q 678 68 678 96 q 658 20 678 40 q 610 0 638 0 l 68 0 z "},"|":{"ha":203,"x_min":0,"x_max":136,"o":"m 136 68 q 116 20 136 40 q 68 0 96 0 q 20 20 40 0 q 0 68 0 40 l 0 882 q 20 929 0 909 q 68 949 40 949 q 116 929 96 949 q 136 882 136 909 l 136 68 z "},"}":{"ha":746,"x_min":0,"x_max":678,"o":"m 119 24 q 116 20 118 22 q 68 0 96 0 q 20 20 40 0 q 0 68 0 40 q 20 116 0 96 l 446 543 l 68 543 l 68 543 q 20 563 40 543 q 1 611 1 583 q 20 659 1 639 q 68 679 40 679 q 79 678 74 679 l 610 678 q 658 659 638 678 q 678 610 678 639 q 659 563 678 583 l 119 24 z "},"~":{"ha":746,"x_min":0,"x_max":678,"o":"m 610 407 q 658 387 638 407 q 678 339 678 367 q 658 291 678 311 q 610 271 638 271 l 68 271 q 20 291 40 271 q 0 339 0 311 q 20 387 0 368 q 68 407 40 407 l 610 407 z "}}}
